<?xml version="1.0" encoding="UTF-8"?>
<svg width="150px" height="150px" viewBox="0 0 150 150" version="1.1" xmlns="http://www.w3.org/2000/svg" xmlns:xlink="http://www.w3.org/1999/xlink">
    <g id="Page-1" stroke="none" stroke-width="1" fill="none" fill-rule="evenodd">
        <g id="kiith_paktu">
            <path d="M75.21625,0.215546218 C34.2,0.215546218 0.94875,33.7462185 0.94875,75.1071429 C0.94875,116.468067 34.2,149.998739 75.21625,149.998739 C116.23125,149.998739 149.4825,116.468067 149.4825,75.1071429 C149.4825,33.7462185 116.23125,0.215546218 75.21625,0.215546218" id="Fill-435" fill="#111207"></path>
            <path d="M40.52,137.280252 L56.78875,127.807563 C56.3325,126.796639 55.9625,125.742857 55.6725,124.652521 L29.1,129.378151 C32.58875,132.394538 36.36875,135.07437 40.3975,137.371008 C40.43875,137.340756 40.475,137.306723 40.52,137.280252" id="Fill-437" fill="#FFFFFE"></path>
            <path d="M53.525,142.402941 L60.7825,133.680252 C60.00125,132.879832 59.2925,132.011345 58.65125,131.092437 L44.29625,139.448319 C47.15125,140.847479 50.11875,142.044958 53.1725,143.052101 C53.24375,142.821429 53.36125,142.59958 53.525,142.402941" id="Fill-438" fill="#FFFFFE"></path>
            <path d="M93.5875,110.736555 C93.58,110.741597 93.57,110.744118 93.5625,110.747899 C94.025,111.747479 94.40875,112.788655 94.7075,113.867647 C94.70875,113.867647 94.71,113.866387 94.7125,113.866387 L139.03125,105.985714 C139.07875,105.978151 139.125,105.980672 139.1725,105.97563 C142.91625,98.1037815 145.2525,89.4264706 145.9025,80.2802521 L93.5875,110.736555" id="Fill-439" fill="#FFFFFE"></path>
            <path d="M94.75875,124.652521 C94.46875,125.742857 94.09875,126.796639 93.6425,127.807563 L109.91125,137.280252 C109.9575,137.306723 109.9925,137.340756 110.035,137.371008 C114.0625,135.07437 117.8425,132.394538 121.33125,129.378151 L94.75875,124.652521" id="Fill-440" fill="#FFFFFE"></path>
            <path d="M63.65125,136.115546 L56.93875,144.184034 C59.15625,144.777731 61.4175,145.265546 63.71625,145.644958 L66.54625,137.79958 C65.53375,137.314286 64.5625,136.758403 63.65125,136.115546" id="Fill-441" fill="#FFFFFE"></path>
            <path d="M86.78,136.116807 C85.86875,136.758403 84.8975,137.314286 83.885,137.79958 L86.71625,145.644958 C89.01375,145.265546 91.275,144.777731 93.49125,144.182773 L86.78,136.116807" id="Fill-442" fill="#FFFFFE"></path>
            <path d="M56.84375,110.736555 L4.5275,80.2802521 C5.17875,89.4264706 7.515,98.1037815 11.25875,105.97563 C11.30625,105.980672 11.3525,105.978151 11.4,105.985714 L55.71875,113.866387 C55.72125,113.866387 55.7225,113.867647 55.72375,113.867647 C56.0225,112.788655 56.40625,111.747479 56.86875,110.747899 C56.86125,110.744118 56.85125,110.741597 56.84375,110.736555" id="Fill-443" fill="#FFFFFE"></path>
            <path d="M63.71125,102.478992 C63.725,102.495378 63.73375,102.515546 63.7475,102.533193 C64.64875,101.906723 65.60875,101.368487 66.60625,100.893277 C66.59375,100.865546 66.5775,100.841597 66.5675,100.811345 L35.8325,15.6642857 C26.225,22.1508403 18.27625,30.9415966 12.7675,41.2563025 L63.71125,102.478992" id="Fill-444" fill="#FFFFFE"></path>
            <path d="M73.365,139.692857 C72.235,139.588235 71.14,139.377731 70.07125,139.096639 L67.5175,146.169328 C69.44375,146.377311 71.39625,146.497059 73.365,146.547479 L73.365,139.692857" id="Fill-445" fill="#FFFFFE"></path>
            <path d="M27.63,125.798319 L55.03875,120.92395 C55,120.407143 54.96,119.887815 54.96,119.360924 C54.96,118.763445 55,118.173529 55.05,117.587395 L13.45625,110.192017 C16.91,116.359664 21.2425,121.953782 26.2875,126.810504 C26.545,126.297479 27.02375,125.905462 27.63,125.798319" id="Fill-446" fill="#FFFFFE"></path>
            <path d="M95.3825,117.587395 C95.4325,118.173529 95.47125,118.763445 95.47125,119.360924 C95.47125,119.887815 95.43125,120.407143 95.3925,120.92395 L122.8025,125.798319 C123.4075,125.905462 123.88625,126.297479 124.14375,126.810504 C129.1875,121.953782 133.52125,116.359664 136.975,110.192017 L95.3825,117.587395" id="Fill-447" fill="#FFFFFE"></path>
            <path d="M5.26125,76.339916 L58.72,107.461765 C58.7325,107.469328 58.74375,107.480672 58.75625,107.488235 C59.3975,106.585714 60.09625,105.727311 60.8725,104.943277 C60.86,104.931933 60.8475,104.923109 60.8375,104.910504 L10.94125,44.9470588 C6.70375,54.1134454 4.3225,64.3285714 4.3225,75.1071429 C4.3225,75.4386555 4.34375,75.7651261 4.34875,76.0941176 C4.66,76.0978992 4.97375,76.1722689 5.26125,76.339916" id="Fill-448" fill="#FFFFFE"></path>
            <path d="M91.78,131.092437 C91.13875,132.011345 90.43,132.879832 89.64875,133.680252 L96.90625,142.402941 C97.07,142.59958 97.1875,142.821429 97.25875,143.052101 C100.31375,142.044958 103.28,140.847479 106.135,139.448319 L91.78,131.092437" id="Fill-449" fill="#FFFFFE"></path>
            <path d="M80.36,139.096639 C79.3075,139.37395 78.2275,139.584454 77.115,139.689076 L77.115,146.546218 C79.06875,146.494538 81.0025,146.37605 82.91375,146.169328 L80.36,139.096639" id="Fill-450" fill="#FFFFFE"></path>
            <path d="M89.59375,104.910504 C89.58375,104.923109 89.57125,104.931933 89.56,104.943277 C90.335,105.727311 91.03375,106.585714 91.675,107.488235 C91.6875,107.480672 91.69875,107.469328 91.71125,107.461765 L145.17,76.339916 C145.45875,76.1722689 145.77125,76.0978992 146.0825,76.0941176 C146.0875,75.7651261 146.10625,75.4386555 146.10625,75.1071429 C146.10625,64.3285714 143.7275,54.1134454 139.49,44.9470588 L89.59375,104.910504" id="Fill-451" fill="#FFFFFE"></path>
            <path d="M83.865,100.811345 C83.85375,100.841597 83.8375,100.865546 83.825,100.893277 C84.8225,101.368487 85.78375,101.906723 86.68375,102.533193 C86.6975,102.515546 86.70625,102.495378 86.72,102.478992 L137.66375,41.2563025 C132.155,30.9415966 124.20625,22.1508403 114.59875,15.6642857 L83.865,100.811345" id="Fill-452" fill="#FFFFFE"></path>
            <path d="M75.21625,103.183613 C84.07625,103.183613 91.25875,110.426471 91.25875,119.362185 C91.25875,128.296639 84.07625,135.539496 75.21625,135.539496 C66.355,135.539496 59.1725,128.296639 59.1725,119.362185 C59.1725,110.426471 66.355,103.183613 75.21625,103.183613" id="Fill-453" fill="#FFFFFE"></path>
        </g>
    </g>
</svg>