<?xml version="1.0" encoding="UTF-8"?>
<svg width="150px" height="151px" viewBox="0 0 150 151" version="1.1" xmlns="http://www.w3.org/2000/svg" xmlns:xlink="http://www.w3.org/1999/xlink">
    <g id="Page-1" stroke="none" stroke-width="1" fill="none" fill-rule="evenodd">
        <g id="kiith_sjet" transform="translate(5.500000, 6.000000)">
            <path d="M139.5,69 C139.5,107.106528 108.382662,138 70,138 C31.617338,138 0.5,107.106528 0.5,69 C0.5,30.8934722 31.617338,0 70,0 C108.382662,0 139.5,30.8934722 139.5,69 Z" id="Fill-544" fill="#111207"></path>
            <path d="M139.5,69 C139.5,107.106528 108.382662,138 70,138 C31.617338,138 0.5,107.106528 0.5,69 C0.5,30.8934722 31.617338,0 70,0 C108.382662,0 139.5,30.8934722 139.5,69 Z" id="Stroke-546" stroke="#111207" stroke-width="4.5"></path>
            <path d="M69.5,53 C45.7526095,53 26.5,72.0276807 26.5,95.5 C26.5,118.971258 45.7526095,138 69.5,138 C93.2473905,138 112.5,118.971258 112.5,95.5 C112.5,72.0276807 93.2473905,53 69.5,53 Z" id="Stroke-548" stroke="#111207" stroke-width="4.5" fill="#FFFFFF"></path>
            <path d="M86.5,76.0005231 C86.5,84.8371637 79.1130836,92 70,92 C60.8869164,92 53.5,84.8371637 53.5,76.0005231 C53.5,67.1638824 60.8869164,60 70,60 C79.1130836,60 86.5,67.1638824 86.5,76.0005231" id="Fill-549" fill="#111207"></path>
            <path d="M86.5,32.0005231 C86.5,40.8361176 79.1130836,48 70,48 C60.8869164,48 53.5,40.8361176 53.5,32.0005231 C53.5,23.1638824 60.8869164,16 70,16 C79.1130836,16 86.5,23.1638824 86.5,32.0005231" id="Fill-550" fill="#FFFFFE"></path>
        </g>
    </g>
</svg>