<?xml version="1.0" encoding="UTF-8"?>
<svg width="153px" height="46px" viewBox="0 0 153 46" version="1.1" xmlns="http://www.w3.org/2000/svg" xmlns:xlink="http://www.w3.org/1999/xlink">
    <g id="Page-1" stroke="none" stroke-width="1" fill="none" fill-rule="evenodd">
        <g id="kiith_manaan" fill="#111207">
            <path d="M153.11,32.77 C153.11,32.77 62.814,-5.534 39.717,2.067 C20.335,8.446 19.045,22.358 28.324,31.143 C38.69,40.958 61.013,45.342 61.013,45.342 C61.013,45.342 38.207,35.612 50.195,31.308 C61.598,27.215 153.11,32.77 153.11,32.77" id="Fill-648"></path>
            <path d="M48.488,0.898 C15.742,1.19 -1.949,31.333 1.002,36.111 C7.142,46.052 35.577,45.635 35.577,45.635 C35.577,45.635 7.142,44.59 3.926,34.357 C1.948,28.064 22.174,4.406 48.195,3.821" id="Fill-650"></path>
        </g>
    </g>
</svg>