<?xml version="1.0" encoding="UTF-8"?>
<svg width="150px" height="150px" viewBox="0 0 150 150" version="1.1" xmlns="http://www.w3.org/2000/svg" xmlns:xlink="http://www.w3.org/1999/xlink">
    <g id="Page-1" stroke="none" stroke-width="1" fill="none" fill-rule="evenodd">
        <g id="kiith_soban" transform="translate(9.000000, 4.000000)">
            <path d="M127.640192,6.1375493 L84.9951434,0.0511659313 C83.4132343,-0.174965441 81.8159792,0.356507163 80.6867749,1.48588644 L74.5944424,7.57226982 C74.0867481,8.07946843 73.717167,8.67993027 73.4677957,9.32127461 C73.0253216,9.19607193 72.563665,9.12963785 72.0917778,9.12963785 L59.9071129,9.12963785 C59.4352257,9.12963785 58.9735691,9.19607193 58.5323738,9.32127461 C58.2817237,8.67993027 57.9134215,8.07946843 57.4057271,7.57226982 L51.3133947,1.48588644 C50.1829115,0.356507163 48.5869352,-0.174965441 47.0050261,0.0511659313 L4.3586992,6.1375493 C1.98775371,6.47610757 0.175655676,8.42441459 0.011965804,10.8122086 C-0.151724068,13.2000026 1.379032,15.3782737 3.68219965,16.034949 L46.3285265,28.2077157 C47.2300997,28.4657865 48.152134,28.4581211 49.010227,28.2319897 L54.9299178,57.8002636 C55.083377,58.5680882 55.4184297,59.2541478 55.8672981,59.8469441 C55.4657463,60.3796943 55.1524337,60.9852665 54.9823497,61.662383 L51.9361835,73.8338722 C51.7737724,74.482882 51.7418018,75.1561658 51.8415503,75.8166738 L60.9787701,136.680508 C61.3521876,139.162842 63.4865501,141 65.9994454,141 C68.5123406,141 70.6479819,139.162842 71.0201206,136.680508 L80.1586193,75.8166738 C80.2583678,75.1561658 80.2263971,74.482882 80.0639861,73.8338722 L77.0178198,61.662383 C76.8477358,60.9852665 76.5344232,60.3796943 76.1328715,59.8469441 C76.580461,59.2541478 76.9167925,58.5680882 77.0702518,57.8002636 L82.9899425,28.2332673 C83.8467567,28.4581211 84.7700699,28.4657865 85.671643,28.2077157 L128.316691,16.034949 C130.621138,15.3782737 132.150615,13.2000026 131.988204,10.8122086 C131.824514,8.42441459 130.012416,6.47610757 127.640192,6.1375493 Z" id="Fill-496" fill="#FFFFFE"></path>
            <path d="M127.640192,6.1375493 L84.9951434,0.0511659313 C83.4132343,-0.174965441 81.8159792,0.356507163 80.6867749,1.48588644 L74.5944424,7.57226982 C74.0867481,8.07946843 73.717167,8.67993027 73.4677957,9.32127461 C73.0253216,9.19607193 72.563665,9.12963785 72.0917778,9.12963785 L59.9071129,9.12963785 C59.4352257,9.12963785 58.9735691,9.19607193 58.5323738,9.32127461 C58.2817237,8.67993027 57.9134215,8.07946843 57.4057271,7.57226982 L51.3133947,1.48588644 C50.1829115,0.356507163 48.5869352,-0.174965441 47.0050261,0.0511659313 L4.3586992,6.1375493 C1.98775371,6.47610757 0.175655676,8.42441459 0.011965804,10.8122086 C-0.151724068,13.2000026 1.379032,15.3782737 3.68219965,16.034949 L46.3285265,28.2077157 C47.2300997,28.4657865 48.152134,28.4581211 49.010227,28.2319897 L54.9299178,57.8002636 C55.083377,58.5680882 55.4184297,59.2541478 55.8672981,59.8469441 C55.4657463,60.3796943 55.1524337,60.9852665 54.9823497,61.662383 L51.9361835,73.8338722 C51.7737724,74.482882 51.7418018,75.1561658 51.8415503,75.8166738 L60.9787701,136.680508 C61.3521876,139.162842 63.4865501,141 65.9994454,141 C68.5123406,141 70.6479819,139.162842 71.0201206,136.680508 L80.1586193,75.8166738 C80.2583678,75.1561658 80.2263971,74.482882 80.0639861,73.8338722 L77.0178198,61.662383 C76.8477358,60.9852665 76.5344232,60.3796943 76.1328715,59.8469441 C76.580461,59.2541478 76.9167925,58.5680882 77.0702518,57.8002636 L82.9899425,28.2332673 C83.8467567,28.4581211 84.7700699,28.4657865 85.671643,28.2077157 L128.316691,16.034949 C130.621138,15.3782737 132.150615,13.2000026 131.988204,10.8122086 C131.824514,8.42441459 130.012416,6.47610757 127.640192,6.1375493 Z" id="Stroke-498" stroke="#111207" stroke-width="3.97"></path>
            <polygon id="Fill-499" fill="#111207" points="79 11.3333333 85 24 127 11.3333333 85 5"></polygon>
            <polygon id="Stroke-500" stroke="#FFFFFE" stroke-width="7.94" stroke-linecap="round" stroke-linejoin="round" points="79 11.3333333 85 24 127 11.3333333 85 5"></polygon>
            <polygon id="Fill-501" fill="#111207" points="53 11.3333333 46.9998426 24 5 11.3333333 46.9998426 5"></polygon>
            <polygon id="Stroke-502" stroke="#FFFFFE" stroke-width="7.94" stroke-linecap="round" stroke-linejoin="round" points="53 11.3333333 46.9998426 24 5 11.3333333 46.9998426 5"></polygon>
            <polygon id="Fill-503" fill="#111207" points="82 69 100 69 100 35 82 35"></polygon>
            <polygon id="Fill-504" fill="#111207" points="31 69 49 69 49 35 31 35"></polygon>
            <path d="M65.00065,77 C79.359509,77 91,65.5830792 91,51.5 C91,37.4169208 79.359509,26 65.00065,26 C50.640491,26 39,37.4169208 39,51.5 C39,65.5830792 50.640491,77 65.00065,77 Z" id="Fill-505" fill="#FFFFFE"></path>
            <path d="M65.00065,77 C79.359509,77 91,65.5830792 91,51.5 C91,37.4169208 79.359509,26 65.00065,26 C50.640491,26 39,37.4169208 39,51.5 C39,65.5830792 50.640491,77 65.00065,77 Z" id="Stroke-506" stroke="#111207" stroke-width="3.97"></path>
            <polygon id="Fill-507" fill="#111207" points="56 75.1668795 59.1666667 63 71.8333333 63 75 75.1668795 65.5 136"></polygon>
            <polygon id="Stroke-508" stroke="#FFFFFE" stroke-width="7.94" stroke-linecap="round" stroke-linejoin="round" points="56 75.1668795 59.1666667 63 71.8333333 63 75 75.1668795 65.5 136"></polygon>
            <polygon id="Fill-509" fill="#111207" points="59.25 57 71.75 57 78 27.0003599 71.75 15 59.25 15 53 27.0003599"></polygon>
            <polygon id="Stroke-510" stroke="#FFFFFE" stroke-width="7.94" stroke-linecap="round" stroke-linejoin="round" points="59.25 57 71.75 57 78 27.0003599 71.75 15 59.25 15 53 27.0003599"></polygon>
            <polygon id="Fill-511" fill="#111207" points="56 75.1668795 59.1666667 63 71.8333333 63 75 75.1668795 65.5 136"></polygon>
            <polygon id="Stroke-512" stroke="#111207" stroke-width="2.647" stroke-linecap="round" stroke-linejoin="round" points="56 75.1668795 59.1666667 63 71.8333333 63 75 75.1668795 65.5 136"></polygon>
            <polygon id="Fill-513" fill="#111207" points="59.25 57 71.75 57 78 27.0003599 71.75 15 59.25 15 53 27.0003599"></polygon>
            <polygon id="Stroke-514" stroke="#111207" stroke-width="2.647" stroke-linecap="round" stroke-linejoin="round" points="59.25 57 71.75 57 78 27.0003599 71.75 15 59.25 15 53 27.0003599"></polygon>
            <polygon id="Fill-515" fill="#111207" points="79 11.3333333 85 24 127 11.3333333 85 5"></polygon>
            <polygon id="Stroke-516" stroke="#111207" stroke-width="2.647" stroke-linecap="round" stroke-linejoin="round" points="79 11.3333333 85 24 127 11.3333333 85 5"></polygon>
            <polygon id="Fill-517" fill="#111207" points="53 11.3333333 46.9998426 24 5 11.3333333 46.9998426 5"></polygon>
            <polygon id="Stroke-518" stroke="#111207" stroke-width="2.647" stroke-linecap="round" stroke-linejoin="round" points="53 11.3333333 46.9998426 24 5 11.3333333 46.9998426 5"></polygon>
        </g>
    </g>
</svg>