<?xml version="1.0" encoding="UTF-8"?>
<svg width="150px" height="151px" viewBox="0 0 150 151" version="1.1" xmlns="http://www.w3.org/2000/svg" xmlns:xlink="http://www.w3.org/1999/xlink">
    <g id="Page-1" stroke="none" stroke-width="1" fill="none" fill-rule="evenodd">
        <g id="kiith_naabal" transform="translate(12.000000, 13.000000)">
            <path d="M63.0005843,36 C77.911843,36 90,38.4659735 90,63.5602667 C90,88.6557187 77.911843,109 63.0005843,109 C48.088157,109 36,88.6557187 36,63.5602667 C36,38.4659735 48.088157,36 63.0005843,36 Z" id="Fill-581" fill="#FFFFFE"></path>
            <path d="M63.0005843,36 C77.911843,36 90,38.4659735 90,63.5602667 C90,88.6557187 77.911843,109 63.0005843,109 C48.088157,109 36,88.6557187 36,63.5602667 C36,38.4659735 48.088157,36 63.0005843,36 Z" id="Stroke-583" stroke="#111207" stroke-width="11.953" stroke-linecap="round"></path>
            <path d="M66.5997681,51 C73.4485918,51 79,56.5259437 79,63.3421976 L79,110.656648 C79,117.472902 73.4485918,123 66.5997681,123 L60.4002319,123 C53.5525676,123 48,117.472902 48,110.656648 L48,63.3421976 C48,56.5259437 53.5525676,51 60.4002319,51 L66.5997681,51 Z" id="Fill-584" fill="#FFFFFE"></path>
            <path d="M66.5997681,51 C73.4485918,51 79,56.5259437 79,63.3421976 L79,110.656648 C79,117.472902 73.4485918,123 66.5997681,123 L60.4002319,123 C53.5525676,123 48,117.472902 48,110.656648 L48,63.3421976 C48,56.5259437 53.5525676,51 60.4002319,51 L66.5997681,51 Z" id="Stroke-585" stroke="#111207" stroke-width="11.953" stroke-linecap="round"></path>
            <path d="M33.837476,64.1086578 L18.5885856,67 L5,55.2486926 M36,47.4055782 L17.843283,29.1394538 L18.3214233,5" id="Stroke-586" stroke="#111207" stroke-width="11.953" stroke-linecap="round"></path>
            <path d="M3.09461607,50.3784182 C5.6478421,49.3266139 8.56977754,50.5425459 9.62158184,53.0946161 C10.6733861,55.6466863 9.45745413,58.5697775 6.90538393,59.6215818 C4.3521579,60.6733861 1.43022246,59.4574541 0.378418162,56.9053839 C-0.673386133,54.3521579 0.542545865,51.4302225 3.09461607,50.3784182 Z" id="Fill-587" fill="#FFFFFE"></path>
            <path d="M3.09461607,50.3784182 C5.6478421,49.3266139 8.56977754,50.5425459 9.62158184,53.0946161 C10.6733861,55.6466863 9.45745413,58.5697775 6.90538393,59.6215818 C4.3521579,60.6733861 1.43022246,59.4574541 0.378418162,56.9053839 C-0.673386133,54.3521579 0.542545865,51.4302225 3.09461607,50.3784182 Z" id="Stroke-588" stroke="#111207" stroke-width="11.953" stroke-linecap="round"></path>
            <polyline id="Stroke-589" stroke="#111207" stroke-width="11.953" stroke-linecap="round" points="35 77 30 87.4941741 33.2315325 103"></polyline>
            <path d="M29.6268409,100.576759 C30.9653211,98.1621865 34.0075316,97.2895192 36.4221129,98.6268385 C38.83785,99.9653138 39.7105206,103.007513 38.3731962,105.423241 C37.0347161,107.837813 33.9913496,108.710481 31.5767684,107.373161 C29.1621871,106.034686 28.2895166,102.992487 29.6268409,100.576759 Z" id="Fill-590" fill="#FFFFFE"></path>
            <path d="M29.6268409,100.576759 C30.9653211,98.1621865 34.0075316,97.2895192 36.4221129,98.6268385 C38.83785,99.9653138 39.7105206,103.007513 38.3731962,105.423241 C37.0347161,107.837813 33.9913496,108.710481 31.5767684,107.373161 C29.1621871,106.034686 28.2895166,102.992487 29.6268409,100.576759 Z" id="Stroke-591" stroke="#111207" stroke-width="11.953" stroke-linecap="round"></path>
            <path d="M18.8320507,0.0706608949 C21.5539668,0.530670496 23.389382,3.11042283 22.9293724,5.83233894 C22.4693628,8.55425505 19.8896104,10.3885144 17.1676943,9.92966064 C14.4446224,9.46965104 12.6115188,6.8898987 13.0703726,4.1679826 C13.5303822,1.44491068 16.1101345,-0.389348706 18.8320507,0.0706608949 Z" id="Fill-592" fill="#FFFFFE"></path>
            <path d="M18.8320507,0.0706608949 C21.5539668,0.530670496 23.389382,3.11042283 22.9293724,5.83233894 C22.4693628,8.55425505 19.8896104,10.3885144 17.1676943,9.92966064 C14.4446224,9.46965104 12.6115188,6.8898987 13.0703726,4.1679826 C13.5303822,1.44491068 16.1101345,-0.389348706 18.8320507,0.0706608949 Z" id="Stroke-593" stroke="#111207" stroke-width="11.953" stroke-linecap="round"></path>
            <path d="M92.1635106,64.1086578 L107.411273,67 L121,55.2486926 M90,47.4055782 L108.15652,29.1394538 L107.678416,5" id="Stroke-594" stroke="#111207" stroke-width="11.953" stroke-linecap="round"></path>
            <path d="M122.905534,50.3784182 C120.352431,49.3266139 117.430637,50.5425459 116.378884,53.0946161 C115.325974,55.6466863 116.543003,58.5697775 119.09495,59.6215818 C121.646897,60.6733861 124.569847,59.4574541 125.6216,56.9053839 C126.673354,54.3521579 125.45748,51.4302225 122.905534,50.3784182 Z" id="Fill-595" fill="#FFFFFE"></path>
            <path d="M122.905534,50.3784182 C120.352431,49.3266139 117.430637,50.5425459 116.378884,53.0946161 C115.325974,55.6466863 116.543003,58.5697775 119.09495,59.6215818 C121.646897,60.6733861 124.569847,59.4574541 125.6216,56.9053839 C126.673354,54.3521579 125.45748,51.4302225 122.905534,50.3784182 Z" id="Stroke-596" stroke="#111207" stroke-width="11.953" stroke-linecap="round"></path>
            <polyline id="Stroke-597" stroke="#111207" stroke-width="11.953" stroke-linecap="round" points="91 77 96 87.4941741 92.7673649 103"></polyline>
            <path d="M96.3731939,100.576759 C95.0347088,98.1621865 91.9924869,97.2895192 89.5778967,98.6268385 C87.1621506,99.9653138 86.2894768,103.007513 87.6268061,105.423241 C88.9652912,107.837813 92.0075131,108.710481 94.4221033,107.373161 C96.8378494,106.034686 97.7105232,102.992487 96.3731939,100.576759 Z" id="Fill-598" fill="#FFFFFE"></path>
            <path d="M96.3731939,100.576759 C95.0347088,98.1621865 91.9924869,97.2895192 89.5778967,98.6268385 C87.1621506,99.9653138 86.2894768,103.007513 87.6268061,105.423241 C88.9652912,107.837813 92.0075131,108.710481 94.4221033,107.373161 C96.8378494,106.034686 97.7105232,102.992487 96.3731939,100.576759 Z" id="Stroke-599" stroke="#111207" stroke-width="11.953" stroke-linecap="round"></path>
            <path d="M107.16833,0.0706608949 C104.445031,0.530670496 102.610619,3.11042283 103.070667,5.83233894 C103.530715,8.55425505 106.110682,10.3885144 108.832825,9.92966064 C111.554968,9.46965104 113.38938,6.8898987 112.929332,4.1679826 C112.47044,1.44491068 109.889317,-0.389348706 107.16833,0.0706608949 Z" id="Fill-600" fill="#FFFFFE"></path>
            <path d="M107.16833,0.0706608949 C104.445031,0.530670496 102.610619,3.11042283 103.070667,5.83233894 C103.530715,8.55425505 106.110682,10.3885144 108.832825,9.92966064 C111.554968,9.46965104 113.38938,6.8898987 112.929332,4.1679826 C112.47044,1.44491068 109.889317,-0.389348706 107.16833,0.0706608949 Z" id="Stroke-601" stroke="#111207" stroke-width="11.953" stroke-linecap="round"></path>
            <path d="M33.837476,64.1086578 L18.5885856,67 L5,55.2486926 M36,47.4055782 L17.843283,29.1394538 L18.3214233,5" id="Stroke-602" stroke="#FFFFFE" stroke-width="4.781" stroke-linecap="round"></path>
            <path d="M3.09461607,50.3784182 C5.6478421,49.3266139 8.56977754,50.5425459 9.62158184,53.0946161 C10.6733861,55.6466863 9.45745413,58.5697775 6.90538393,59.6215818 C4.3521579,60.6733861 1.43022246,59.4574541 0.378418162,56.9053839 C-0.673386133,54.3521579 0.542545865,51.4302225 3.09461607,50.3784182 Z" id="Fill-603" fill="#111207"></path>
            <path d="M3.09461607,50.3784182 C5.6478421,49.3266139 8.56977754,50.5425459 9.62158184,53.0946161 C10.6733861,55.6466863 9.45745413,58.5697775 6.90538393,59.6215818 C4.3521579,60.6733861 1.43022246,59.4574541 0.378418162,56.9053839 C-0.673386133,54.3521579 0.542545865,51.4302225 3.09461607,50.3784182 Z" id="Stroke-604" stroke="#FFFFFE" stroke-width="3.576" stroke-linecap="round"></path>
            <polyline id="Stroke-605" stroke="#FFFFFE" stroke-width="4.781" stroke-linecap="round" points="35 77 30 87.4941741 33.2315325 103"></polyline>
            <path d="M29.6268409,100.576759 C30.9653211,98.1621865 34.0075316,97.2895192 36.4221129,98.6268385 C38.83785,99.9653138 39.7105206,103.007513 38.3731962,105.423241 C37.0347161,107.837813 33.9913496,108.710481 31.5767684,107.373161 C29.1621871,106.034686 28.2895166,102.992487 29.6268409,100.576759 Z" id="Fill-606" fill="#111207"></path>
            <path d="M29.6268409,100.576759 C30.9653211,98.1621865 34.0075316,97.2895192 36.4221129,98.6268385 C38.83785,99.9653138 39.7105206,103.007513 38.3731962,105.423241 C37.0347161,107.837813 33.9913496,108.710481 31.5767684,107.373161 C29.1621871,106.034686 28.2895166,102.992487 29.6268409,100.576759 Z" id="Stroke-607" stroke="#FFFFFE" stroke-width="3.576" stroke-linecap="round"></path>
            <path d="M18.8320507,0.0706608949 C21.5539668,0.530670496 23.389382,3.11042283 22.9293724,5.83233894 C22.4693628,8.55425505 19.8896104,10.3885144 17.1676943,9.92966064 C14.4446224,9.46965104 12.6115188,6.8898987 13.0703726,4.1679826 C13.5303822,1.44491068 16.1101345,-0.389348706 18.8320507,0.0706608949 Z" id="Fill-608" fill="#111207"></path>
            <path d="M18.8320507,0.0706608949 C21.5539668,0.530670496 23.389382,3.11042283 22.9293724,5.83233894 C22.4693628,8.55425505 19.8896104,10.3885144 17.1676943,9.92966064 C14.4446224,9.46965104 12.6115188,6.8898987 13.0703726,4.1679826 C13.5303822,1.44491068 16.1101345,-0.389348706 18.8320507,0.0706608949 Z" id="Stroke-609" stroke="#FFFFFE" stroke-width="3.576" stroke-linecap="round"></path>
            <path d="M92.1635106,64.1086578 L107.411273,67 L121,55.2486926 M90,47.4055782 L108.15652,29.1394538 L107.678416,5" id="Stroke-610" stroke="#FFFFFE" stroke-width="4.781" stroke-linecap="round"></path>
            <path d="M122.905534,50.3784182 C120.352431,49.3266139 117.430637,50.5425459 116.378884,53.0946161 C115.325974,55.6466863 116.543003,58.5697775 119.09495,59.6215818 C121.646897,60.6733861 124.569847,59.4574541 125.6216,56.9053839 C126.673354,54.3521579 125.45748,51.4302225 122.905534,50.3784182 Z" id="Fill-611" fill="#111207"></path>
            <path d="M122.905534,50.3784182 C120.352431,49.3266139 117.430637,50.5425459 116.378884,53.0946161 C115.325974,55.6466863 116.543003,58.5697775 119.09495,59.6215818 C121.646897,60.6733861 124.569847,59.4574541 125.6216,56.9053839 C126.673354,54.3521579 125.45748,51.4302225 122.905534,50.3784182 Z" id="Stroke-612" stroke="#FFFFFE" stroke-width="3.576" stroke-linecap="round"></path>
            <polyline id="Stroke-613" stroke="#FFFFFE" stroke-width="4.781" stroke-linecap="round" points="91 77 96 87.4941741 92.7673649 103"></polyline>
            <path d="M96.3731939,100.576759 C95.0347088,98.1621865 91.9924869,97.2895192 89.5778967,98.6268385 C87.1621506,99.9653138 86.2894768,103.007513 87.6268061,105.423241 C88.9652912,107.837813 92.0075131,108.710481 94.4221033,107.373161 C96.8378494,106.034686 97.7105232,102.992487 96.3731939,100.576759 Z" id="Fill-614" fill="#111207"></path>
            <path d="M96.3731939,100.576759 C95.0347088,98.1621865 91.9924869,97.2895192 89.5778967,98.6268385 C87.1621506,99.9653138 86.2894768,103.007513 87.6268061,105.423241 C88.9652912,107.837813 92.0075131,108.710481 94.4221033,107.373161 C96.8378494,106.034686 97.7105232,102.992487 96.3731939,100.576759 Z" id="Stroke-615" stroke="#FFFFFE" stroke-width="3.576" stroke-linecap="round"></path>
            <path d="M107.16833,0.0706608949 C104.445031,0.530670496 102.610619,3.11042283 103.070667,5.83233894 C103.530715,8.55425505 106.110682,10.3885144 108.832825,9.92966064 C111.554968,9.46965104 113.38938,6.8898987 112.929332,4.1679826 C112.47044,1.44491068 109.889317,-0.389348706 107.16833,0.0706608949 Z" id="Fill-616" fill="#111207"></path>
            <path d="M107.16833,0.0706608949 C104.445031,0.530670496 102.610619,3.11042283 103.070667,5.83233894 C103.530715,8.55425505 106.110682,10.3885144 108.832825,9.92966064 C111.554968,9.46965104 113.38938,6.8898987 112.929332,4.1679826 C112.47044,1.44491068 109.889317,-0.389348706 107.16833,0.0706608949 Z" id="Stroke-617" stroke="#FFFFFE" stroke-width="3.576" stroke-linecap="round"></path>
            <path d="M63.0005843,36 C77.911843,36 90,38.4659735 90,63.5602667 C90,88.6557187 77.911843,109 63.0005843,109 C48.088157,109 36,88.6557187 36,63.5602667 C36,38.4659735 48.088157,36 63.0005843,36 Z" id="Fill-618" fill="#FFFFFE"></path>
            <path d="M63.0005843,36 C77.911843,36 90,38.4659735 90,63.5602667 C90,88.6557187 77.911843,109 63.0005843,109 C48.088157,109 36,88.6557187 36,63.5602667 C36,38.4659735 48.088157,36 63.0005843,36 Z" id="Stroke-619" stroke="#111207" stroke-width="3.333" stroke-linecap="round"></path>
            <path d="M66.5997681,51 C73.4485918,51 79,56.5259437 79,63.3421976 L79,110.656648 C79,117.472902 73.4485918,123 66.5997681,123 L60.4002319,123 C53.5525676,123 48,117.472902 48,110.656648 L48,63.3421976 C48,56.5259437 53.5525676,51 60.4002319,51 L66.5997681,51 Z" id="Fill-620" fill="#FFFFFE"></path>
            <path d="M66.5997681,51 C73.4485918,51 79,56.5259437 79,63.3421976 L79,110.656648 C79,117.472902 73.4485918,123 66.5997681,123 L60.4002319,123 C53.5525676,123 48,117.472902 48,110.656648 L48,63.3421976 C48,56.5259437 53.5525676,51 60.4002319,51 L66.5997681,51 Z" id="Stroke-621" stroke="#111207" stroke-width="3.333" stroke-linecap="round"></path>
            <path d="M63,107 C65.7602934,107 68,109.238523 68,112 C68,114.760293 65.7602934,117 63,117 C60.2385234,117 58,114.760293 58,112 C58,109.238523 60.2385234,107 63,107 Z" id="Fill-622" fill="#FFFFFE"></path>
            <path d="M63,107 C65.7602934,107 68,109.238523 68,112 C68,114.760293 65.7602934,117 63,117 C60.2385234,117 58,114.760293 58,112 C58,109.238523 60.2385234,107 63,107 Z" id="Stroke-623" stroke="#111207" stroke-width="1.195"></path>
        </g>
    </g>
</svg>